<svg width="111" height="30" viewBox="0 0 111 30" fill="none" xmlns="http://www.w3.org/2000/svg">
<path d="M0 23.1429V4.85714H2.05407V7.66667H2.20842C2.57254 6.74603 3.20578 6.00397 4.10814 5.44048C5.01842 4.86905 6.04744 4.58333 7.19519 4.58333C7.36933 4.58333 7.56326 4.5873 7.77698 4.59524C7.99069 4.60317 8.16879 4.61111 8.31127 4.61905V6.77381C8.21629 6.75794 8.05006 6.73413 7.8126 6.70238C7.57513 6.67063 7.31788 6.65476 7.04083 6.65476C6.09097 6.65476 5.24402 6.85714 4.49996 7.26191C3.76382 7.65873 3.18203 8.21032 2.75459 8.91667C2.32716 9.62302 2.11344 10.4286 2.11344 11.3333V23.1429H0Z" fill="#F6F5F2"/>
<path d="M23.5061 16.1548V4.85714H25.6195V23.1429H23.5061V20.1071H23.3398C22.9124 21.0437 22.2356 21.8254 21.3095 22.4524C20.3834 23.0714 19.2515 23.381 17.9138 23.381C16.7502 23.381 15.7172 23.127 14.8148 22.619C13.9125 22.1032 13.204 21.3492 12.6895 20.3571C12.175 19.3651 11.9178 18.1468 11.9178 16.7024V4.85714H14.0312V16.5714C14.0312 18 14.4507 19.1508 15.2898 20.0238C16.1288 20.8889 17.2053 21.3214 18.5193 21.3214C19.3425 21.3214 20.1341 21.123 20.8939 20.7262C21.6538 20.3294 22.2792 19.75 22.7699 18.9881C23.2607 18.2183 23.5061 17.2738 23.5061 16.1548Z" fill="#F6F5F2"/>
<path d="M32.687 30C32.2675 30 31.8757 29.9603 31.5116 29.881C31.1475 29.8016 30.8586 29.7143 30.6448 29.619L31.2148 27.75C31.9351 27.9722 32.5762 28.0516 33.1382 27.9881C33.7002 27.9325 34.1989 27.6786 34.6343 27.2262C35.0696 26.7817 35.4575 26.0992 35.7978 25.1786L36.4627 23.3214L29.7544 4.85714H32.0459L37.4601 20.3452H37.6263L43.0405 4.85714H45.3321L37.6144 26.0357C37.2899 26.9167 36.8902 27.6508 36.4152 28.2381C35.9403 28.8333 35.3902 29.2738 34.7649 29.5595C34.1475 29.8532 33.4548 30 32.687 30Z" fill="#F6F5F2"/>
<path d="M49.9062 23.1429V4.85714H50.6661V7.7619H50.7611C51.1885 6.80952 51.8891 6.04762 52.8627 5.47619C53.8442 4.90476 54.9642 4.61905 56.2228 4.61905C56.3178 4.61905 56.3811 4.61905 56.4128 4.61905C56.4444 4.61905 56.5077 4.61905 56.6027 4.61905V5.38095C56.5077 5.38095 56.4444 5.38095 56.4128 5.38095C56.3811 5.38095 56.3178 5.38095 56.2228 5.38095C55.1463 5.38095 54.1885 5.61508 53.3495 6.08333C52.5183 6.55159 51.8613 7.19841 51.3785 8.02381C50.9036 8.84921 50.6661 9.79365 50.6661 10.8571V23.1429H49.9062Z" fill="#F6F5F2"/>
<path d="M60.8741 23.1429V4.85714H61.634V23.1429H60.8741ZM61.2541 1.52381C61.0483 1.52381 60.8702 1.44841 60.7198 1.29762C60.5694 1.14683 60.4942 0.968254 60.4942 0.761904C60.4942 0.555555 60.5694 0.376984 60.7198 0.226191C60.8702 0.0753971 61.0483 0 61.2541 0C61.4599 0 61.638 0.0753971 61.7884 0.226191C61.9388 0.376984 62.014 0.555555 62.014 0.761904C62.014 0.968254 61.9388 1.14683 61.7884 1.29762C61.638 1.44841 61.4599 1.52381 61.2541 1.52381Z" fill="#F6F5F2"/>
<path d="M80.7292 4.85714L74.2226 23.1429H73.1778L66.6712 4.85714H67.4786L73.6527 22.1905H73.7477L79.9218 4.85714H80.7292Z" fill="#F6F5F2"/>
<path d="M91.8455 23.5238C90.2545 23.5238 88.8613 23.1071 87.6661 22.2738C86.4788 21.4405 85.5566 20.3095 84.8996 18.881C84.2427 17.4524 83.9142 15.8413 83.9142 14.0476C83.9142 12.254 84.2427 10.6429 84.8996 9.21429C85.5645 7.78571 86.4669 6.65476 87.6067 5.82143C88.7466 4.98809 90.0328 4.57143 91.4655 4.57143C92.5262 4.57143 93.5077 4.79762 94.4101 5.25C95.3204 5.70238 96.1119 6.32937 96.7848 7.13095C97.4576 7.93254 97.98 8.85714 98.352 9.90476C98.732 10.9444 98.9219 12.0556 98.9219 13.2381V14H84.2941V13.2381H98.1621C98.1621 11.7698 97.8613 10.4405 97.2597 9.25C96.6581 8.05159 95.8507 7.09921 94.8376 6.39286C93.8244 5.68651 92.7004 5.33333 91.4655 5.33333C90.2149 5.33333 89.083 5.70635 88.0698 6.45238C87.0566 7.19841 86.2453 8.21429 85.6358 9.5C85.0263 10.7857 84.7057 12.2381 84.674 13.8571V13.9524C84.674 15.5476 84.9511 17.0159 85.5052 18.3571C86.0672 19.6905 86.8825 20.7579 87.9511 21.5595C89.0197 22.3611 90.3178 22.7619 91.8455 22.7619C92.9695 22.7619 93.9114 22.5635 94.6713 22.1667C95.4391 21.7698 96.0526 21.3135 96.5117 20.7976C96.9787 20.2817 97.323 19.8413 97.5447 19.4762L98.1621 19.9048C97.8929 20.3651 97.4892 20.877 96.951 21.4405C96.4127 22.004 95.7241 22.4921 94.885 22.9048C94.046 23.3175 93.0328 23.5238 91.8455 23.5238Z" fill="#F6F5F2"/>
<path d="M104.303 23.1429V4.85714H105.063V7.7619H105.158C105.586 6.80952 106.286 6.04762 107.26 5.47619C108.241 4.90476 109.361 4.61905 110.62 4.61905C110.715 4.61905 110.778 4.61905 110.81 4.61905C110.842 4.61905 110.905 4.61905 111 4.61905V5.38095C110.905 5.38095 110.842 5.38095 110.81 5.38095C110.778 5.38095 110.715 5.38095 110.62 5.38095C109.544 5.38095 108.586 5.61508 107.747 6.08333C106.916 6.55159 106.259 7.19841 105.776 8.02381C105.301 8.84921 105.063 9.79365 105.063 10.8571V23.1429H104.303Z" fill="#F6F5F2"/>
</svg>
