<?xml version="1.0" encoding="UTF-8"?>
<svg id="Layer_1" xmlns="http://www.w3.org/2000/svg" xmlns:xlink="http://www.w3.org/1999/xlink" version="1.1" viewBox="0 0 69 23">
  <!-- Generator: Adobe Illustrator 29.3.1, SVG Export Plug-In . SVG Version: 2.1.0 Build 151)  -->
  <g id="Layer_1-2">
    <g>
      <path fill="#FFFFFF" d="M45.3,12.8c.6.3,2.2.8,1.5,1.7-.5.7-1.2,0-1.7-.2l-.2.8c.5.4,2.1.7,1.6,1.7-.5.8-1.6-.2-2.1-.4-1.1,2.4-3.5,4-5.9,4.7-4.9,1.5-11.4.1-13.8-4.7l-1.3.7c-.3,0-.7,0-.9-.3-.5-.9,1.1-1.3,1.6-1.7l-.2-.8c-.5.2-1.4.9-1.8.1-.4-.9,1.1-1.2,1.6-1.6,0-.8.1-1.5.3-2.3.4-1.3,1.1-2.5,1.9-3.5,0-1.2-.2-2.4-.2-3.6,0-1,.5-2,1.5-2.1,1.3-.1,3.3,1.8,4.5,2.4,1.8-.4,3.7-.4,5.4,0l3.4-2.2c1-.5,2.1-.1,2.4.9.3.9,0,2.5,0,3.4,0,.3,0,1,0,1.2,0,.1.8,1.1.9,1.3.5.9,1,2,1.1,3.1,0,.4,0,.9.1,1.4h0ZM35.6,4.8c-.7,0-1.5,0-2.2,0-.1,0,0,.4,0,.5,0,.5-.7.6-1,.4l-4.5-2.9c-.5-.3-.7,0-.7.5,0,1.1.2,2.4.2,3.4,0,.2,0,.5,0,.7,0,.2-.8,1-1,1.3-.7,1-1.2,2.3-1.2,3.5.4,0,.9-.3,1.3-.2.4.1.6.6.4,1-.3.5-1.2.3-1.6.6l.2,1c.5-.1,1.4-.5,1.8,0,.5.8-.6,1.1-1.2,1.2,2,3.6,6.5,4.8,10.3,4.3,2.8-.4,5.6-1.8,6.9-4.3-.5,0-1.4-.1-1.3-.9.1-.9,1.3-.5,1.9-.4l.2-1c0-.1-1.1-.2-1.4-.3-.5-.3-.4-1.1.1-1.2.4-.1.9.1,1.3.2,0-1.2-.5-2.5-1.2-3.5-.3-.5-.8-.9-1-1.4,0-1.3.1-2.6.2-3.9,0-.5,0-1.2-.7-.7l-4.6,3c-.7.2-1.1-.4-.9-1h0Z"/>
      <circle fill="#FFFFFF" cx="30.9" cy="11.5" r="1.4"/>
      <circle fill="#FFFFFF" cx="38.1" cy="11.5" r="1.4"/>
    </g>
  </g>
</svg>
