<svg width="112" height="31" viewBox="0 0 112 31" fill="none" xmlns="http://www.w3.org/2000/svg">
<path d="M0.160034 21.6901V10.7798H2.58321L2.68418 13.8036L2.46205 13.7628C2.6236 12.714 2.9265 11.958 3.37075 11.4949C3.82846 11.0182 4.44771 10.7798 5.22851 10.7798H6.21798V13.0272H5.20832C4.65638 13.0272 4.19866 13.109 3.83519 13.2724C3.47171 13.4359 3.19574 13.6947 3.00727 14.0488C2.83226 14.3893 2.74476 14.8388 2.74476 15.3973V21.6901H0.160034Z" fill="#333333"/>
<path d="M12.299 21.9353C11.2355 21.9353 10.2998 21.7037 9.49211 21.2406C8.69784 20.7639 8.07859 20.0965 7.63434 19.2384C7.20355 18.3803 6.98816 17.3791 6.98816 16.235C6.98816 15.0772 7.20355 14.076 7.63434 13.2316C8.07859 12.3734 8.69784 11.7128 9.49211 11.2497C10.2998 10.773 11.2355 10.5346 12.299 10.5346C13.3625 10.5346 14.2913 10.773 15.0856 11.2497C15.8799 11.7128 16.4924 12.3734 16.9232 13.2316C17.3674 14.076 17.5896 15.0772 17.5896 16.235C17.5896 17.3791 17.3674 18.3803 16.9232 19.2384C16.4924 20.0965 15.8799 20.7639 15.0856 21.2406C14.2913 21.7037 13.3625 21.9353 12.299 21.9353ZM12.299 19.8104C13.1336 19.8104 13.7731 19.4972 14.2173 18.8706C14.675 18.244 14.9039 17.3655 14.9039 16.235C14.9039 15.118 14.675 14.2463 14.2173 13.6198C13.7731 12.9796 13.1336 12.6595 12.299 12.6595C11.4643 12.6595 10.8181 12.9796 10.3604 13.6198C9.9027 14.2463 9.67385 15.118 9.67385 16.235C9.67385 17.3655 9.9027 18.244 10.3604 18.8706C10.8181 19.4972 11.4643 19.8104 12.299 19.8104Z" fill="#333333"/>
<path d="M23.4208 21.9353C22.5054 21.9353 21.7111 21.7037 21.038 21.2406C20.3784 20.7775 19.8668 20.1169 19.5033 19.2588C19.1399 18.4007 18.9581 17.3927 18.9581 16.235C18.9581 15.0772 19.1399 14.0692 19.5033 13.2111C19.8668 12.353 20.3851 11.6924 21.0582 11.2293C21.7313 10.7662 22.5188 10.5346 23.4208 10.5346C24.1747 10.5346 24.8343 10.6913 25.3997 11.0045C25.9786 11.3178 26.4161 11.7605 26.7123 12.3326V7.18388H29.297V21.6901H26.8334L26.7729 20.0761C26.4767 20.6617 26.0325 21.118 25.4401 21.4449C24.8478 21.7719 24.1747 21.9353 23.4208 21.9353ZM24.2083 19.8104C24.7468 19.8104 25.1978 19.6742 25.5613 19.4018C25.9382 19.1294 26.2209 18.7276 26.4094 18.1964C26.6113 17.6515 26.7123 16.9977 26.7123 16.235C26.7123 15.4586 26.6113 14.8048 26.4094 14.2736C26.2209 13.7423 25.9382 13.3405 25.5613 13.0681C25.1978 12.7957 24.7468 12.6595 24.2083 12.6595C23.4275 12.6595 22.8015 12.9796 22.3304 13.6198C21.8727 14.2463 21.6438 15.118 21.6438 16.235C21.6438 17.3246 21.8727 18.1964 22.3304 18.8502C22.8015 19.4904 23.4275 19.8104 24.2083 19.8104Z" fill="#333333"/>
<path d="M32.2837 21.6901V10.7798H34.7069L34.8078 13.8036L34.5857 13.7628C34.7473 12.714 35.0502 11.958 35.4944 11.4949C35.9521 11.0182 36.5714 10.7798 37.3522 10.7798H38.3417V13.0272H37.332C36.78 13.0272 36.3223 13.109 35.9589 13.2724C35.5954 13.4359 35.3194 13.6947 35.1309 14.0488C34.9559 14.3893 34.8684 14.8388 34.8684 15.3973V21.6901H32.2837Z" fill="#333333"/>
<path d="M40.0139 21.6901V10.7798H42.5986V21.6901H40.0139ZM39.9735 9.32917V7H42.6592V9.32917H39.9735Z" fill="#333333"/>
<path d="M49.8437 25C48.9014 25 48.0936 24.8706 47.4205 24.6118C46.7474 24.353 46.2022 23.9852 45.7849 23.5085C45.381 23.0454 45.0983 22.5074 44.9368 21.8944L47.6023 21.7106C47.7369 22.1192 47.9657 22.4393 48.2888 22.6708C48.6254 22.9024 49.1437 23.0182 49.8437 23.0182C50.638 23.0182 51.2505 22.8343 51.6813 22.4665C52.1121 22.1124 52.3275 21.5539 52.3275 20.7911V19.4018C52.0717 19.933 51.6611 20.3621 51.0957 20.689C50.5303 21.0023 49.8975 21.1589 49.1975 21.1589C48.309 21.1589 47.5148 20.941 46.8147 20.5051C46.1282 20.0556 45.5897 19.4359 45.1993 18.6459C44.8089 17.8422 44.6137 16.916 44.6137 15.8672C44.6137 14.8184 44.8021 13.899 45.1791 13.109C45.5695 12.3053 46.108 11.6788 46.7945 11.2293C47.4811 10.7662 48.2686 10.5346 49.1571 10.5346C49.9379 10.5346 50.611 10.7117 51.1764 11.0658C51.7419 11.42 52.1524 11.8899 52.4082 12.4756V10.7798H54.9324V20.7299C54.9324 21.6561 54.717 22.4393 54.2862 23.0795C53.8689 23.7196 53.2765 24.1964 52.5092 24.5096C51.7553 24.8365 50.8668 25 49.8437 25ZM49.8033 19.1158C50.5707 19.1158 51.1832 18.8297 51.6409 18.2577C52.0986 17.672 52.3342 16.8683 52.3477 15.8468C52.3611 15.1657 52.2601 14.5868 52.0448 14.1101C51.8428 13.6198 51.5467 13.2452 51.1563 12.9864C50.7793 12.714 50.3283 12.5778 49.8033 12.5778C49.009 12.5778 48.3898 12.8774 47.9455 13.4767C47.5148 14.0624 47.2994 14.8524 47.2994 15.8468C47.2994 16.8411 47.5215 17.6379 47.9657 18.2372C48.4234 18.8229 49.036 19.1158 49.8033 19.1158Z" fill="#333333"/>
<path d="M62.2494 21.9353C61.1859 21.9353 60.2503 21.7037 59.4425 21.2406C58.6483 20.7639 58.029 20.0965 57.5848 19.2384C57.154 18.3803 56.9386 17.3791 56.9386 16.235C56.9386 15.0772 57.154 14.076 57.5848 13.2316C58.029 12.3734 58.6483 11.7128 59.4425 11.2497C60.2503 10.773 61.1859 10.5346 62.2494 10.5346C63.3129 10.5346 64.2418 10.773 65.036 11.2497C65.8303 11.7128 66.4428 12.3734 66.8736 13.2316C67.3179 14.076 67.54 15.0772 67.54 16.235C67.54 17.3791 67.3179 18.3803 66.8736 19.2384C66.4428 20.0965 65.8303 20.7639 65.036 21.2406C64.2418 21.7037 63.3129 21.9353 62.2494 21.9353ZM62.2494 19.8104C63.084 19.8104 63.7235 19.4972 64.1677 18.8706C64.6255 18.244 64.8543 17.3655 64.8543 16.235C64.8543 15.118 64.6255 14.2463 64.1677 13.6198C63.7235 12.9796 63.084 12.6595 62.2494 12.6595C61.4147 12.6595 60.7686 12.9796 60.3108 13.6198C59.8531 14.2463 59.6243 15.118 59.6243 16.235C59.6243 17.3655 59.8531 18.244 60.3108 18.8706C60.7686 19.4972 61.4147 19.8104 62.2494 19.8104Z" fill="#333333"/>
<path d="M69.9337 21.6901V10.8615H71.428L71.5087 13.5993L71.3472 13.538C71.4818 12.6118 71.7713 11.9376 72.2155 11.5153C72.6732 11.0795 73.279 10.8615 74.0329 10.8615H75.0829V12.496H74.0531C73.5146 12.496 73.0636 12.5982 72.7001 12.8025C72.3501 12.9932 72.0809 13.286 71.8924 13.681C71.7174 14.0624 71.6299 14.5528 71.6299 15.1521V21.6901H69.9337Z" fill="#333333"/>
<path d="M76.9737 21.6901V10.8615H78.6699V21.6901H76.9737ZM76.9333 9.16572V7.16345H78.7103V9.16572H76.9333Z" fill="#333333"/>
<path d="M84.4325 21.6901L80.5352 10.8615H82.393L85.5027 19.933L88.6125 10.8615H90.4703L86.573 21.6901H84.4325Z" fill="#333333"/>
<path d="M94.9667 21.9353C93.8628 21.9353 92.981 21.6765 92.3214 21.1589C91.6752 20.6413 91.3521 19.9194 91.3521 18.9932C91.3521 18.067 91.6214 17.3383 92.1599 16.807C92.6983 16.2758 93.5532 15.9012 94.7244 15.6833L98.5207 14.9682C98.5207 14.0556 98.3053 13.3746 97.8745 12.9251C97.4572 12.4756 96.8245 12.2509 95.9764 12.2509C95.236 12.2509 94.6503 12.4211 94.2196 12.7616C93.7888 13.0885 93.4926 13.5653 93.3311 14.1918L91.5339 14.0488C91.7358 13.0272 92.2204 12.2032 92.9878 11.5766C93.7686 10.9364 94.7648 10.6163 95.9764 10.6163C97.3495 10.6163 98.3995 11.0114 99.1265 11.8014C99.8534 12.5778 100.217 13.6538 100.217 15.0295V19.504C100.217 19.7491 100.257 19.9262 100.338 20.0352C100.432 20.1305 100.58 20.1782 100.782 20.1782H101.206V21.6901C101.153 21.7037 101.065 21.7106 100.944 21.7106C100.823 21.7242 100.695 21.731 100.56 21.731C100.076 21.731 99.6784 21.6561 99.3688 21.5062C99.0726 21.3428 98.8573 21.0976 98.7226 20.7707C98.588 20.4302 98.5207 19.9875 98.5207 19.4427L98.7226 19.4835C98.6284 19.9467 98.3995 20.3689 98.0361 20.7503C97.6726 21.118 97.2216 21.4109 96.6831 21.6288C96.1446 21.8331 95.5725 21.9353 94.9667 21.9353ZM95.1283 20.4234C95.8417 20.4234 96.4475 20.2872 96.9456 20.0148C97.4572 19.7287 97.8476 19.3473 98.1168 18.8706C98.3861 18.3802 98.5207 17.8354 98.5207 17.2361V16.4597L95.0475 17.1135C94.3205 17.2497 93.8157 17.4608 93.533 17.7469C93.2638 18.0193 93.1291 18.3802 93.1291 18.8297C93.1291 19.3337 93.3041 19.7287 93.6542 20.0148C94.0176 20.2872 94.509 20.4234 95.1283 20.4234Z" fill="#333333"/>
<path d="M106.98 21.9353C106.024 21.9353 105.21 21.7787 104.537 21.4654C103.877 21.1521 103.359 20.723 102.982 20.1782C102.618 19.6198 102.41 18.9864 102.356 18.2781L104.133 18.1555C104.241 18.8093 104.516 19.3337 104.961 19.7287C105.405 20.1101 106.078 20.3008 106.98 20.3008C107.707 20.3008 108.286 20.185 108.717 19.9535C109.161 19.7083 109.383 19.3201 109.383 18.7889C109.383 18.5028 109.316 18.2645 109.181 18.0738C109.046 17.8831 108.784 17.7196 108.394 17.5834C108.003 17.4336 107.424 17.2906 106.657 17.1544C105.634 16.9637 104.826 16.7321 104.234 16.4597C103.655 16.1737 103.238 15.8263 102.982 15.4177C102.739 14.9955 102.618 14.4983 102.618 13.9262C102.618 12.9591 102.968 12.1691 103.668 11.5562C104.368 10.9296 105.365 10.6163 106.657 10.6163C107.532 10.6163 108.266 10.7798 108.858 11.1067C109.464 11.42 109.935 11.8422 110.272 12.3734C110.622 12.891 110.85 13.4631 110.958 14.0897L109.181 14.2123C109.1 13.8309 108.952 13.4972 108.737 13.2111C108.521 12.9115 108.239 12.6799 107.889 12.5165C107.539 12.3394 107.121 12.2509 106.637 12.2509C105.869 12.2509 105.304 12.4007 104.941 12.7003C104.577 13 104.395 13.3814 104.395 13.8445C104.395 14.1986 104.476 14.4915 104.638 14.723C104.813 14.941 105.089 15.1249 105.466 15.2747C105.843 15.4109 106.347 15.5335 106.98 15.6425C108.07 15.8331 108.919 16.0647 109.524 16.3371C110.13 16.6095 110.554 16.9432 110.797 17.3383C111.039 17.7333 111.16 18.2168 111.16 18.7889C111.16 19.4563 110.972 20.0284 110.595 20.5051C110.231 20.9682 109.733 21.3224 109.1 21.5675C108.481 21.8127 107.774 21.9353 106.98 21.9353Z" fill="#333333"/>
</svg>
