<svg width="112" height="31" viewBox="0 0 112 31" fill="none" xmlns="http://www.w3.org/2000/svg">
<path d="M0.0142212 23.3019V5.0162H2.06829V7.82572H2.22264C2.58676 6.90509 3.22 6.16303 4.12236 5.59953C5.03265 5.0281 6.06166 4.74239 7.20941 4.74239C7.38355 4.74239 7.57748 4.74636 7.7912 4.7543C8.00492 4.76223 8.18301 4.77017 8.32549 4.77811V6.93287C8.23051 6.91699 8.06428 6.89318 7.82682 6.86144C7.58935 6.82969 7.3321 6.81382 7.05506 6.81382C6.1052 6.81382 5.25824 7.0162 4.51418 7.42096C3.77804 7.81779 3.19625 8.36937 2.76881 9.07572C2.34138 9.78207 2.12766 10.5876 2.12766 11.4924V23.3019H0.0142212Z" fill="#333333"/>
<path d="M23.5203 16.3138V5.0162H25.6337V23.3019H23.5203V20.2662H23.3541C22.9266 21.2027 22.2498 21.9845 21.3237 22.6114C20.3976 23.2305 19.2657 23.54 17.928 23.54C16.7644 23.54 15.7314 23.286 14.8291 22.7781C13.9267 22.2622 13.2183 21.5083 12.7038 20.5162C12.1892 19.5241 11.932 18.3059 11.932 16.8614V5.0162H14.0454V16.7305C14.0454 18.1591 14.4649 19.3099 15.304 20.1829C16.143 21.0479 17.2195 21.4805 18.5335 21.4805C19.3567 21.4805 20.1483 21.2821 20.9082 20.8852C21.6681 20.4884 22.2934 19.9091 22.7841 19.1472C23.2749 18.3773 23.5203 17.4329 23.5203 16.3138Z" fill="#333333"/>
<path d="M32.7013 30.1591C32.2817 30.1591 31.8899 30.1194 31.5258 30.04C31.1617 29.9606 30.8728 29.8733 30.6591 29.7781L31.229 27.9091C31.9493 28.1313 32.5904 28.2106 33.1524 28.1472C33.7144 28.0916 34.2131 27.8376 34.6485 27.3852C35.0838 26.9408 35.4717 26.2583 35.8121 25.3376L36.477 23.4805L29.7686 5.0162H32.0601L37.4743 20.5043H37.6405L43.0547 5.0162H45.3463L37.6287 26.1948C37.3041 27.0757 36.9044 27.8099 36.4295 28.3972C35.9545 28.9924 35.4044 29.4329 34.7791 29.7186C34.1617 30.0122 33.4691 30.1591 32.7013 30.1591Z" fill="#333333"/>
<path d="M49.9204 23.3019V5.0162H50.6803V7.92096H50.7753C51.2027 6.96858 51.9033 6.20668 52.8769 5.63525C53.8584 5.06382 54.9784 4.77811 56.237 4.77811C56.332 4.77811 56.3953 4.77811 56.427 4.77811C56.4586 4.77811 56.522 4.77811 56.6169 4.77811V5.54001C56.522 5.54001 56.4586 5.54001 56.427 5.54001C56.3953 5.54001 56.332 5.54001 56.237 5.54001C55.1605 5.54001 54.2027 5.77414 53.3637 6.24239C52.5326 6.71064 51.8756 7.35747 51.3927 8.18287C50.9178 9.00826 50.6803 9.95271 50.6803 11.0162V23.3019H49.9204Z" fill="#333333"/>
<path d="M60.8884 23.3019V5.0162H61.6482V23.3019H60.8884ZM61.2683 1.68287C61.0625 1.68287 60.8844 1.60747 60.734 1.45668C60.5836 1.30588 60.5084 1.12731 60.5084 0.920962C60.5084 0.714613 60.5836 0.536042 60.734 0.385249C60.8844 0.234455 61.0625 0.159058 61.2683 0.159058C61.4741 0.159058 61.6522 0.234455 61.8026 0.385249C61.953 0.536042 62.0282 0.714613 62.0282 0.920962C62.0282 1.12731 61.953 1.30588 61.8026 1.45668C61.6522 1.60747 61.4741 1.68287 61.2683 1.68287Z" fill="#333333"/>
<path d="M80.7434 5.0162L74.2368 23.3019H73.192L66.6855 5.0162H67.4928L73.6669 22.3495H73.7619L79.936 5.0162H80.7434Z" fill="#333333"/>
<path d="M91.8597 23.6829C90.2687 23.6829 88.8756 23.2662 87.6803 22.4329C86.493 21.5995 85.5708 20.4686 84.9139 19.04C84.2569 17.6114 83.9284 16.0003 83.9284 14.2067C83.9284 12.413 84.2569 10.8019 84.9139 9.37334C85.5788 7.94477 86.4811 6.81382 87.621 5.98049C88.7608 5.14715 90.0471 4.73049 91.4798 4.73049C92.5404 4.73049 93.522 4.95668 94.4243 5.40906C95.3346 5.86144 96.1262 6.48842 96.799 7.29001C97.4718 8.0916 97.9942 9.0162 98.3662 10.0638C98.7462 11.1035 98.9362 12.2146 98.9362 13.3972V14.1591H84.3083V13.3972H98.1763C98.1763 11.9289 97.8755 10.5995 97.2739 9.40906C96.6723 8.21065 95.865 7.25826 94.8518 6.55191C93.8386 5.84557 92.7146 5.49239 91.4798 5.49239C90.2291 5.49239 89.0972 5.86541 88.084 6.61144C87.0708 7.35747 86.2595 8.37334 85.65 9.65906C85.0405 10.9448 84.7199 12.3972 84.6883 14.0162V14.1114C84.6883 15.7067 84.9653 17.1749 85.5194 18.5162C86.0814 19.8495 86.8967 20.917 87.9653 21.7186C89.0339 22.5202 90.332 22.921 91.8597 22.921C92.9837 22.921 93.9257 22.7225 94.6855 22.3257C95.4533 21.9289 96.0668 21.4725 96.5259 20.9567C96.9929 20.4408 97.3372 20.0003 97.5589 19.6352L98.1763 20.0638C97.9071 20.5241 97.5035 21.036 96.9652 21.5995C96.4269 22.163 95.7383 22.6511 94.8993 23.0638C94.0602 23.4765 93.047 23.6829 91.8597 23.6829Z" fill="#333333"/>
<path d="M104.318 23.3019V5.0162H105.078V7.92096H105.173C105.6 6.96858 106.301 6.20668 107.274 5.63525C108.256 5.06382 109.376 4.77811 110.634 4.77811C110.729 4.77811 110.793 4.77811 110.824 4.77811C110.856 4.77811 110.919 4.77811 111.014 4.77811V5.54001C110.919 5.54001 110.856 5.54001 110.824 5.54001C110.793 5.54001 110.729 5.54001 110.634 5.54001C109.558 5.54001 108.6 5.77414 107.761 6.24239C106.93 6.71064 106.273 7.35747 105.79 8.18287C105.315 9.00826 105.078 9.95271 105.078 11.0162V23.3019H104.318Z" fill="#333333"/>
</svg>
